<?xml version="1.0" encoding="utf-8"?>
<!-- Generator: Adobe Illustrator 25.0.0, SVG Export Plug-In . SVG Version: 6.00 Build 0)  -->
<svg version="1.1" id="Layer_1" xmlns="http://www.w3.org/2000/svg" xmlns:xlink="http://www.w3.org/1999/xlink" x="0px" y="0px"
	 viewBox="0 0 35 33" style="enable-background:new 0 0 35 33;" xml:space="preserve">
<style type="text/css">
	.st0{fill:#FFFFFF;stroke:#FFFFFF;stroke-width:0.2;}
	.st1{opacity:0;}
	.st2{fill:#FFFFFF;}
	.st3{fill:none;stroke:#707070;}
</style>
<g id="Group_3714" transform="translate(0.218)">
	<path id="Path_7593" class="st0" d="M21.9,29.9c-0.3,0-0.5-0.1-0.7-0.3l-13-12.1c-0.4-0.3-0.4-0.9-0.1-1.3c0,0,0,0,0.1-0.1L21.2,4
		c0.4-0.4,1-0.4,1.4,0c0.4,0.3,0.4,0.9,0.1,1.3c0,0,0,0-0.1,0.1L10.4,16.8l12.3,11.5c0.4,0.3,0.4,0.9,0.1,1.3c0,0,0,0-0.1,0.1
		C22.5,29.8,22.2,29.9,21.9,29.9z"/>
	<g id="Rectangle_1524" transform="translate(-0.218)" class="st1">
		<rect x="0.2" y="-0.4" class="st2" width="35" height="35"/>
		<rect x="0.7" y="0.1" class="st3" width="34" height="34"/>
	</g>
</g>
</svg>
