<?xml version="1.0" encoding="utf-8"?>
<!-- Generator: Adobe Illustrator 25.0.0, SVG Export Plug-In . SVG Version: 6.00 Build 0)  -->
<svg version="1.1" id="Layer_1" xmlns="http://www.w3.org/2000/svg" xmlns:xlink="http://www.w3.org/1999/xlink" x="0px" y="0px"
	 viewBox="0 0 27 33" style="enable-background:new 0 0 27 33;" xml:space="preserve">
<style type="text/css">
	.st0{fill:#FFFFFF;}
</style>
<path id="Path_7406" class="st0" d="M11.3,17.4h4.8c0.4,0,0.8-0.4,0.7-0.8c0-0.4-0.3-0.7-0.7-0.7h-4.8c-0.4,0-0.8,0.3-0.8,0.7
	C10.5,17,10.9,17.4,11.3,17.4C11.3,17.4,11.3,17.4,11.3,17.4z"/>
<path id="Path_7407" class="st0" d="M16.9,18.9c0-0.4-0.3-0.8-0.8-0.8h-4.8c-0.4,0-0.8,0.3-0.8,0.7c0,0.4,0.3,0.8,0.7,0.8
	c0,0,0,0,0.1,0h4.8C16.5,19.7,16.9,19.4,16.9,18.9z"/>
<path id="Path_7408" class="st0" d="M16,24.2c0.4,0,0.8-0.4,0.8-0.8V22h3c0.8,0,1.5-0.7,1.5-1.5V5.6c0-0.8-0.7-1.5-1.5-1.5H7.7
	c-0.8,0-1.5,0.7-1.5,1.5v14.9c0,0.8,0.7,1.5,1.5,1.5h3v1.4c0,0.4,0.3,0.8,0.8,0.8h0.9v1.5H9.1c-1.5,0-2.7,1.2-2.8,2.8v0.7
	c0,0.4,0.3,0.8,0.8,0.8h13.3c0.4,0,0.8-0.3,0.8-0.8v-0.7c0-1.5-1.2-2.7-2.8-2.8H15v-1.5H16z M9.1,27.2h9.3c0.7,0,1.2,0.5,1.2,1.2
	H7.9C7.9,27.8,8.4,27.2,9.1,27.2L9.1,27.2z M15.2,22.1v0.4h-2.9v-0.4H15.2z M7.8,20.4V5.7h11.9v14.7H7.8z"/>
<path id="Path_7409" class="st0" d="M11.7,14.6c0.4,0,0.8-0.3,0.8-0.8v-1.4H14c1.4,0,2.6-1.1,2.6-2.6S15.4,7.3,14,7.3h-2.3
	c-0.4,0-0.8,0.3-0.8,0.8v5.8C10.9,14.3,11.3,14.6,11.7,14.6z M12.5,10.9v-2H14c0.6,0,1,0.5,1,1c0,0.6-0.5,1-1,1H12.5z"/>
</svg>
