<?xml version="1.0" encoding="utf-8"?>
<!-- Generator: Adobe Illustrator 25.0.0, SVG Export Plug-In . SVG Version: 6.00 Build 0)  -->
<svg version="1.1" id="Layer_1" xmlns="http://www.w3.org/2000/svg" xmlns:xlink="http://www.w3.org/1999/xlink" x="0px" y="0px"
	 viewBox="0 0 35 33" style="enable-background:new 0 0 35 33;" xml:space="preserve">
<style type="text/css">
	.st0{fill:#FFFFFF;stroke:#FFFFFF;stroke-width:0.7;}
	.st1{opacity:0;}
	.st2{fill:#FFFFFF;}
	.st3{fill:#707070;}
</style>
<g id="Group_3711" transform="translate(3 3.724)">
	<g id="Group_3708" transform="translate(0 0)">
		<g id="Group_3707">
			<path id="Path_7591" class="st0" d="M28.6,9L15-0.3c-0.3-0.2-0.6-0.2-0.9,0L0.5,9C0.2,9.2,0.1,9.6,0.3,9.9c0,0,0,0,0,0.1
				c0.3,0.3,0.7,0.4,1,0.2l13.2-9l13.2,9c0.1,0.1,0.3,0.1,0.4,0.1c0.2,0,0.5-0.1,0.6-0.3C29,9.7,28.9,9.3,28.6,9
				C28.6,9,28.6,9,28.6,9z"/>
		</g>
	</g>
	<g id="Group_3710" transform="translate(1.802 12.944)">
		<g id="Group_3709" transform="translate(0 0)">
			<path id="Path_7592" class="st0" d="M24.6-0.4c-0.4,0-0.7,0.3-0.7,0.7v11.1h-7.7V5.3c0-1.9-1.6-3.5-3.5-3.5S9.3,3.4,9.3,5.3v6
				H1.6V0.3c0-0.4-0.4-0.7-0.8-0.6c-0.3,0-0.6,0.3-0.6,0.6V12c0,0.4,0.3,0.7,0.7,0.7H10c0.4,0,0.7-0.3,0.7-0.6c0,0,0,0,0-0.1V5.3
				c0-1.2,0.9-2.1,2.1-2.1c1.2,0,2.1,0.9,2.1,2.1V12c0,0,0,0,0,0.1c0,0.4,0.3,0.6,0.7,0.6h9.1c0.4,0,0.7-0.3,0.7-0.7V0.3
				C25.3-0.1,25-0.4,24.6-0.4z"/>
		</g>
	</g>
</g>
<g id="Path_8031" class="st1">
	<path class="st2" d="M34.7,34.1h-34v-34h34V34.1z"/>
	<path class="st3" d="M1.2,0.6v33h33v-33H1.2 M0.2-0.4h35v35h-35V-0.4z"/>
</g>
</svg>
