<?xml version="1.0" encoding="utf-8"?>
<!-- Generator: Adobe Illustrator 25.0.0, SVG Export Plug-In . SVG Version: 6.00 Build 0)  -->
<svg version="1.1" id="Layer_1" xmlns="http://www.w3.org/2000/svg" xmlns:xlink="http://www.w3.org/1999/xlink" x="0px" y="0px"
	 viewBox="0 0 65 51" style="enable-background:new 0 0 65 51;" xml:space="preserve">
<style type="text/css">
	.st0{fill:#365F84;}
</style>
<g id="ICON_-_Pay" transform="translate(0 0)">
	<path id="Path_273" class="st0" d="M31.8,31.8c0.4,0,0.7-0.2,0.7-0.5v-1.6h0.7c1,0.1,2-0.6,2.1-1.6c0-0.1,0-0.3,0-0.4v0
		c0.1-1-0.6-1.9-1.6-2c-0.1,0-0.3,0-0.4,0h-1.6c-0.3,0-0.6,0.2-0.6,0.5c0,0,0,0,0,0v5.2C31,31.5,31.3,31.8,31.8,31.8z M32.5,28.3
		v-1.5h0.7c0.4,0,0.6,0.2,0.6,0.7v0.1c0,0.5-0.2,0.7-0.6,0.7L32.5,28.3z"/>
	<path id="Path_274" class="st0" d="M23.9,31.6c0.1,0,0.1,0,0.2,0c0.5-0.1,0.7-0.5,0.7-1l-0.6-3.1c0-0.2-0.1-0.3-0.3-0.4
		c-5.2-4.8-5.5-12.9-0.7-18.1c0.1-0.1,0.1-0.1,0.2-0.2c4.9-5.1,13-5.2,18.1-0.3c1.9,1.9,3.2,4.3,3.7,7c0.1,0.5,0.5,0.8,1,0.7
		s0.8-0.5,0.7-1c0,0,0,0,0,0l0,0C45.5,7.4,38,2.1,30.1,3.5s-13.1,8.9-11.8,16.8c0.5,3,2,5.8,4.2,7.9l0.6,2.8
		C23.2,31.3,23.5,31.6,23.9,31.6L23.9,31.6z"/>
	<path id="Path_275" class="st0" d="M46.2,18.6L46.2,18.6c-0.5-0.1-0.9,0.3-0.9,0.7c-0.4,3-1.8,5.7-4,7.7c-0.1,0.1-0.2,0.3-0.3,0.4
		l-1.8,8.7c-0.3,1.6-1.8,2.8-3.5,2.8h-6.4c-1.7,0-3.1-1.2-3.5-2.8l-0.3-1.6c-0.1-0.5-0.5-0.7-1-0.7s-0.7,0.5-0.7,1l0.3,1.6
		c0.5,2.3,2.5,4.1,4.9,4.2v5.6c0,0.8,0.7,1.5,1.5,1.5h3.9c0.8,0,1.5-0.7,1.5-1.5v-5.6c2.4-0.1,4.4-1.8,4.9-4.2l1.7-8.4
		c2.4-2.3,3.9-5.3,4.3-8.6C47,19.1,46.7,18.7,46.2,18.6z M34.3,40.7v5.4h-3.5v-5.4H34.3z"/>
	<path id="Path_276" class="st0" d="M42.7,18.6c0.5,0,0.8-0.4,0.8-0.8v0c0-6.1-4.9-11-11-11s-11,4.9-11,11c0,0.5,0.4,0.8,0.8,0.8
		H42.7L42.7,18.6z M32.4,15.7c1,0,2,0.4,2.7,1.2H30C30.6,16.2,31.5,15.7,32.4,15.7z M35.2,10.5c0.2-0.4,0-0.9-0.5-1.1
		c-0.4-0.2-0.9,0-1.1,0.5c0,0,0,0,0,0L32,14.1c-1.7,0.2-3.2,1.3-4,2.8h-4.7c0.5-5.1,5-8.9,10.1-8.5c4.5,0.4,8,4,8.5,8.5h-4.7
		c-0.7-1.4-1.9-2.4-3.4-2.7L35.2,10.5z"/>
	<path id="Path_277" class="st0" d="M28.3,24.2c-2.4,2.4-2.4,6.2,0,8.6s6.2,2.4,8.6,0c2.4-2.4,2.4-6.2,0-8.6
		c-1.1-1.1-2.7-1.8-4.3-1.8C31,22.4,29.4,23.1,28.3,24.2z M35.7,25.4c1.7,1.7,1.7,4.5,0,6.2c-1.7,1.7-4.5,1.7-6.2,0
		c-1.7-1.7-1.7-4.5,0-6.2c0.8-0.8,1.9-1.3,3.1-1.3C33.7,24.1,34.8,24.6,35.7,25.4L35.7,25.4z"/>
</g>
</svg>
