<?xml version="1.0" encoding="utf-8"?>
<!-- Generator: Adobe Illustrator 25.0.0, SVG Export Plug-In . SVG Version: 6.00 Build 0)  -->
<svg version="1.1" id="Layer_1" xmlns="http://www.w3.org/2000/svg" xmlns:xlink="http://www.w3.org/1999/xlink" x="0px" y="0px"
	 viewBox="0 0 65 51" style="enable-background:new 0 0 65 51;" xml:space="preserve">
<style type="text/css">
	.st0{fill:#365F84;}
</style>
<g id="ICON_-_Book" transform="translate(0 0)">
	<rect id="Rectangle_46" x="51" y="31.6" class="st0" width="1.5" height="1.5"/>
	<rect id="Rectangle_47" x="51" y="34.7" class="st0" width="1.5" height="1.5"/>
	<g id="Group_494">
		<path id="Path_324" class="st0" d="M53.2,24.2h-0.9v-0.7c0-0.5-0.4-0.8-0.8-0.8c-0.5,0-0.8,0.4-0.8,0.8v0.7H40.6v-0.7
			c0-0.5-0.4-0.8-0.8-0.8c-0.5,0-0.8,0.4-0.8,0.8v0.7H38c-1.3,0-2.4,1.1-2.4,2.4v0v13.6c0,1.3,1.1,2.4,2.4,2.4l0,0h15.2
			c1.3,0,2.4-1.1,2.4-2.4v0V26.6C55.6,25.3,54.5,24.2,53.2,24.2z M53.9,30.1v10.2c0,0.4-0.3,0.7-0.7,0.7l0,0H38
			c-0.4,0-0.7-0.3-0.7-0.7c0,0,0,0,0,0V30.1H53.9z M39.7,27.4c0.5,0,0.8-0.4,0.8-0.8v-0.7h10.1v0.7c0,0.5,0.4,0.8,0.8,0.8
			c0.5,0,0.8-0.4,0.8-0.8v-0.7h0.9c0.4,0,0.7,0.3,0.7,0.7c0,0,0,0,0,0v1.8H37.3v-1.8c0-0.4,0.3-0.7,0.7-0.7l0,0h0.9v0.7
			C38.9,27,39.2,27.4,39.7,27.4C39.7,27.4,39.7,27.4,39.7,27.4L39.7,27.4z"/>
		<rect id="Rectangle_48" x="38.6" y="31.6" class="st0" width="1.5" height="1.5"/>
		<rect id="Rectangle_49" x="41.7" y="31.6" class="st0" width="1.5" height="1.5"/>
		<rect id="Rectangle_50" x="44.8" y="31.6" class="st0" width="1.5" height="1.5"/>
		<rect id="Rectangle_51" x="47.9" y="31.6" class="st0" width="1.5" height="1.5"/>
		<rect id="Rectangle_52" x="38.6" y="34.7" class="st0" width="1.5" height="1.5"/>
		<rect id="Rectangle_53" x="41.7" y="34.7" class="st0" width="1.5" height="1.5"/>
		<rect id="Rectangle_54" x="44.8" y="34.7" class="st0" width="1.5" height="1.5"/>
		<rect id="Rectangle_55" x="47.9" y="34.7" class="st0" width="1.5" height="1.5"/>
		<rect id="Rectangle_56" x="38.6" y="37.8" class="st0" width="1.5" height="1.5"/>
		<rect id="Rectangle_57" x="41.7" y="37.8" class="st0" width="1.5" height="1.5"/>
		<rect id="Rectangle_58" x="44.8" y="37.8" class="st0" width="1.5" height="1.5"/>
		<rect id="Rectangle_59" x="47.9" y="37.8" class="st0" width="1.5" height="1.5"/>
		<path id="Path_325" class="st0" d="M33.8,19.1c-0.9-0.9-2.2-1.5-3.5-1.5h-4.5c-0.5,0-0.8,0.4-0.8,0.8v15.1c0,0.5,0.3,0.9,0.8,0.9
			h0c0.5,0,0.8-0.4,0.8-0.8c0,0,0,0,0-0.1v-5.8h3.6c2.8,0,5-2.3,5-5.1C35.2,21.3,34.7,20,33.8,19.1L33.8,19.1z M33.6,22.7
			c0,1.9-1.5,3.4-3.4,3.4h-3.6v-6.8h3.6C32.1,19.3,33.6,20.8,33.6,22.7z"/>
		<path id="Path_326" class="st0" d="M29.4,11.8c2.8,0,5.5,0.8,7.9,2.4c2.3,1.5,4.1,3.6,5.2,6.1c0.2,0.5,0.8,0.7,1.2,0.5
			c0.5-0.2,0.7-0.8,0.5-1.2c-1.3-2.8-3.3-5.2-5.9-6.9c-2.6-1.7-5.7-2.7-8.9-2.7c-4.3,0-8.4,1.7-11.4,4.7c-3,3-4.7,7.1-4.7,11.4
			c0,4.3,1.7,8.4,4.7,11.4c3,3,7.1,4.7,11.4,4.7c0.8,0,1.5-0.1,2.3-0.2c0.5-0.1,0.9-0.6,0.8-1.1c0-0.2-0.2-0.5-0.4-0.6
			c-0.2-0.2-0.5-0.2-0.7-0.2c-0.7,0.1-1.3,0.1-2,0.1c-3.8,0-7.4-1.5-10.1-4.2c-2.7-2.7-4.2-6.3-4.2-10.1c0-3.8,1.5-7.4,4.2-10.1
			C22,13.3,25.6,11.8,29.4,11.8z"/>
		<path id="Path_327" class="st0" d="M32.2,43.8c-0.2-0.2-0.4-0.2-0.7-0.2c-0.7,0.1-1.4,0.1-2,0.1c-4.7,0-9.2-1.9-12.5-5.2
			c-3.3-3.3-5.2-7.8-5.2-12.5c0-4.7,1.9-9.2,5.2-12.5c3.3-3.3,7.8-5.2,12.5-5.2c3.7,0,7.3,1.2,10.3,3.3c1.5,1,2.7,2.3,3.8,3.7
			c1.1,1.4,1.9,3,2.5,4.8c0.1,0.2,0.3,0.4,0.5,0.5c0.2,0.1,0.5,0.1,0.7,0c0.2-0.1,0.4-0.3,0.5-0.5c0.1-0.2,0.1-0.5,0-0.7
			c-0.7-1.9-1.6-3.7-2.8-5.3c-1.2-1.6-2.6-3-4.2-4.1c-3.3-2.4-7.3-3.7-11.4-3.7c-2.6,0-5.2,0.5-7.6,1.5c-2.3,1-4.4,2.4-6.2,4.2
			c-1.8,1.8-3.2,3.9-4.2,6.2c-1,2.4-1.5,5-1.5,7.6c0,2.6,0.5,5.2,1.5,7.6c1,2.3,2.4,4.4,4.2,6.2c1.8,1.8,3.9,3.2,6.2,4.2
			c2.4,1,5,1.5,7.6,1.5c0.8,0,1.5,0,2.3-0.1c0.5-0.1,0.9-0.5,0.8-1C32.5,44.2,32.3,44,32.2,43.8z"/>
	</g>
</g>
</svg>
