<?xml version="1.0" encoding="utf-8"?>
<!-- Generator: Adobe Illustrator 25.0.0, SVG Export Plug-In . SVG Version: 6.00 Build 0)  -->
<svg version="1.1" id="Layer_1" xmlns="http://www.w3.org/2000/svg" xmlns:xlink="http://www.w3.org/1999/xlink" x="0px" y="0px"
	 viewBox="0 0 65 51" style="enable-background:new 0 0 65 51;" xml:space="preserve">
<style type="text/css">
	.st0{fill:#365F84;}
</style>
<g>
	<path id="Path_228" class="st0" d="M23.6,39.5c-0.5,0-0.9,0.4-0.9,0.9c0,0.2-0.1,0.4-0.3,0.4H19c-0.2,0-0.3-0.2-0.3-0.4v-1.8
		c0.4,0.1,0.8,0.1,1.2,0.1c0.5,0,0.9-0.4,0.9-0.9c0-0.5-0.4-0.9-0.9-0.9c-1.3,0-3.7,0-3.7-4.5c0-2.1,2.3-4.5,3.3-5.6l0.1-0.1
		c0.3-0.3,0.3-0.9,0-1.2c-0.3-0.3-0.9-0.3-1.2,0l-0.1,0.1c-1.3,1.3-3.9,4-3.8,6.8c0,1.2,0.1,4.2,2.5,5.5v2.4c0,1.2,0.9,2.1,2.1,2.2
		h3.4c1.2,0,2.1-1,2.1-2.2C24.5,39.9,24.1,39.5,23.6,39.5z"/>
	<path id="Path_229" class="st0" d="M46.5,25.5c-0.2-0.2-0.4-0.3-0.6-0.3h0c-0.5,0-0.9,0.4-0.9,0.9c0,0.2,0.1,0.4,0.2,0.6l0.1,0.2
		c1.1,1.1,3.4,3.4,3.3,5.6c0,4.5-2.4,4.5-3.7,4.5c-0.5,0-0.9,0.4-0.9,0.9c0,0.5,0.4,0.9,0.9,0.9c0.4,0,0.8,0,1.2-0.1v1.8
		c0,0.2-0.1,0.4-0.3,0.4h-3.4c-0.2,0-0.3-0.2-0.3-0.4c0-0.5-0.4-0.9-0.9-0.9c-0.5,0-0.9,0.4-0.9,0.9c0,1.2,0.9,2.1,2.1,2.2H46
		c1.2,0,2.1-1,2.1-2.2v-2.3c1.3-0.7,2.4-2.3,2.5-5.6c0-2.9-2.6-5.5-3.8-6.8L46.5,25.5z"/>
	<path id="Path_230" class="st0" d="M35,33.9h-5c-0.9,0-1.6,0.7-1.6,1.6V37h-5.6c-0.5,0-0.9,0.4-0.9,0.9c0,0.5,0.4,0.9,0.9,0.9h19.4
		c0.5,0,0.9-0.4,0.9-0.9c0-0.5-0.4-0.9-0.9-0.9h-5.6v-1.4C36.6,34.7,35.9,33.9,35,33.9z M34.9,37h-4.8l0-1.3l4.8,0L34.9,37z"/>
	<path id="Path_231" class="st0" d="M43.3,35.7c3.4-0.2,4.2-1.8,4.3-3.2c0-0.6-0.2-1.3-0.6-1.7c-0.4-0.5-1-0.7-1.6-0.7
		c0,0-0.1,0-0.1,0c-1.9,0.1-3.6,1.1-4.8,2.6c-0.4,0.6-0.5,1.3-0.2,1.9C40.8,35.3,41.7,35.7,43.3,35.7L43.3,35.7z M41.9,33.8
		c0.1-0.2,0.3-0.4,0.4-0.6c0.8-0.8,1.8-1.3,2.9-1.4h0c0.1,0,0.3,0.1,0.4,0.2c0.1,0.1,0.2,0.3,0.1,0.5c0,0.4-0.1,1.4-2.6,1.5
		C42.8,34,42.3,33.9,41.9,33.8L41.9,33.8z"/>
	<path id="Path_232" class="st0" d="M18,30.8c-0.4,0.5-0.6,1.1-0.6,1.7c0.1,1.4,0.9,3,4.3,3.2h0c1.5,0,2.5-0.4,2.9-1.1
		c0.3-0.6,0.3-1.4-0.2-1.9c-1.1-1.6-2.9-2.5-4.9-2.6C19,30.1,18.5,30.3,18,30.8z M19.8,31.8c1.1,0.1,2.1,0.6,2.9,1.4
		c0.2,0.2,0.3,0.4,0.4,0.6c-0.4,0.2-0.9,0.2-1.3,0.2c-2.5-0.1-2.6-1.1-2.6-1.5c0-0.2,0-0.3,0.1-0.5C19.4,31.9,19.6,31.8,19.8,31.8
		L19.8,31.8z"/>
	<path id="Path_233" class="st0" d="M40.4,28L38,30.4c-0.2,0.2-0.4,0.2-0.6,0.2h-9.7c-0.2,0-0.4-0.1-0.6-0.2L24.6,28
		c-0.3-0.4-0.9-0.4-1.2,0s-0.4,0.9,0,1.2c0,0,0,0,0,0l2.4,2.4c0.5,0.5,1.1,0.8,1.8,0.8h9.7c0.7,0,1.3-0.3,1.8-0.8l2.4-2.4
		c0.3-0.3,0.3-0.9,0-1.2C41.2,27.6,40.7,27.7,40.4,28z"/>
	<path id="Path_234" class="st0" d="M51.6,8.5H13.4c-4,0-7.2,3.2-7.2,7.2v26c0,0.5,0.4,0.9,0.9,0.9h5c0.5,0,0.9-0.4,0.9-0.9V16.4
		c0-0.7,0.5-1.2,1.2-1.2h36.6c0.7,0,1.2,0.5,1.2,1.2v25.3c0,0.5,0.4,0.9,0.9,0.9h5c0.5,0,0.9-0.4,0.9-0.9v-26
		C58.8,11.7,55.6,8.5,51.6,8.5z M57,40.8h-3.3V16.4c0-1.6-1.3-2.9-2.9-2.9H14.2c-1.6,0-2.9,1.3-2.9,2.9v24.4H8V15.7
		c0-3,2.4-5.5,5.5-5.5h38.1c3,0,5.5,2.4,5.5,5.5L57,40.8z"/>
	<path id="Path_235" class="st0" d="M52.9,17.4H12.1c-0.5,0-0.9,0.4-0.9,0.9c0,0.5,0.4,0.9,0.9,0.9h40.7c0.5,0,0.9-0.4,0.9-0.9
		C53.7,17.8,53.4,17.4,52.9,17.4z"/>
	<path id="Path_236" class="st0" d="M52.9,21.3H12.1c-0.5,0-0.9,0.4-0.9,0.9c0,0.5,0.4,0.9,0.9,0.9h40.7c0.5,0,0.9-0.4,0.9-0.9
		C53.7,21.7,53.4,21.3,52.9,21.3z"/>
	<path id="Path_237" class="st0" d="M52.9,25.2H12.1c-0.5,0-0.9,0.4-0.9,0.9c0,0.5,0.4,0.9,0.9,0.9h40.7c0.5,0,0.9-0.4,0.9-0.9
		C53.7,25.6,53.4,25.2,52.9,25.2z"/>
</g>
</svg>
