<?xml version="1.0" encoding="utf-8"?>
<!-- Generator: Adobe Illustrator 25.0.0, SVG Export Plug-In . SVG Version: 6.00 Build 0)  -->
<svg version="1.1" id="Layer_1" xmlns="http://www.w3.org/2000/svg" xmlns:xlink="http://www.w3.org/1999/xlink" x="0px" y="0px"
	 viewBox="0 0 207.9 54.9" style="enable-background:new 0 0 207.9 54.9;" xml:space="preserve">
<style type="text/css">
	.st0{fill:#FFFFFF;}
	.st1{enable-background:new    ;}
	.st2{opacity:0.8;}
</style>
<g id="Group_3924">
	<g id="Group_3465" transform="translate(94.956 30.556)">
		<g id="Group_2522">
			<g id="Group_2523" transform="translate(0 0)">
				<g id="Group_2250" transform="translate(41.413)">
					<g id="Path_1746">
						<path class="st0" d="M13.3,11.5V7.8c0-0.4,0.4-0.8,0.8-0.8c0,0,0,0,0,0h0.3c0.4,0,0.8,0.4,0.8,0.8c0,0,0,0,0,0v3.8
							c-0.1,0.9,0.5,1.7,1.4,1.7c0.1,0,0.2,0,0.2,0c0.9,0,1.6-0.6,1.7-1.5c0-0.1,0-0.2,0-0.2V7.8c0-0.4,0.4-0.8,0.8-0.8c0,0,0,0,0,0
							h0.3c0.4,0,0.8,0.4,0.8,0.8c0,0,0,0,0,0v3.8c0.1,1.8-1.2,3.3-3,3.5c-0.2,0-0.4,0-0.5,0C15,15.1,13.3,13.5,13.3,11.5
							C13.3,11.5,13.3,11.5,13.3,11.5z M12,10.4v3.7c0,0.4-0.4,0.8-0.8,0.8c0,0,0,0,0,0h-0.3c-0.4,0-0.8-0.4-0.8-0.8c0,0,0,0,0,0
							v-3.8c0.1-0.9-0.5-1.7-1.4-1.7c-0.1,0-0.2,0-0.2,0c-0.9,0-1.6,0.6-1.7,1.5c0,0.1,0,0.2,0,0.2v3.8c0,0.4-0.4,0.8-0.8,0.8
							c0,0,0,0,0,0H5.7c-0.4,0-0.8-0.4-0.8-0.8c0,0,0,0,0,0v-3.8c-0.1-1.8,1.2-3.3,3-3.5c0.2,0,0.4,0,0.5,0C10.4,6.8,12,8.4,12,10.4
							C12,10.4,12,10.4,12,10.4L12,10.4z M28.4,11.6h-5.3c0.2,1.1,1.3,1.9,2.4,1.8c0.7,0,1.3-0.1,2-0.4c0.4-0.2,0.8,0,1,0.3l0,0
							c0.2,0.4,0.1,0.9-0.3,1.1c0,0,0,0,0,0c-0.8,0.4-1.8,0.7-2.8,0.7c-2.2,0.2-4.1-1.4-4.3-3.6c0-0.2,0-0.3,0-0.5
							c0-1.1,0.4-2.2,1.1-2.9c0.8-0.8,1.9-1.2,3-1.2c1,0,2.1,0.4,2.8,1.1c0.8,0.8,1.2,1.8,1.1,2.9c0,0,0,0,0,0.1
							C29.2,11.2,28.9,11.6,28.4,11.6L28.4,11.6z M23.2,10.2h4.2c-0.1-1-1-1.8-2-1.8C24.3,8.4,23.3,9.1,23.2,10.2L23.2,10.2z
							 M35.7,7H36c0.4,0,0.8,0.4,0.8,0.8c0,0.1,0,0.2-0.1,0.3L34,14.4c-0.1,0.3-0.4,0.5-0.7,0.5h-0.4c-0.3,0-0.6-0.2-0.7-0.5
							l-2.7-6.3c-0.2-0.4,0-0.9,0.4-1C29.9,7,30,7,30.1,7h0.3c0.3,0,0.6,0.2,0.7,0.5l1.9,4.8l1.9-4.8C35,7.2,35.3,7,35.7,7L35.7,7z
							 M38,8c0.8-0.8,1.9-1.2,3-1.2c1.1,0,2.2,0.4,3,1.2c0.8,0.8,1.2,1.8,1.2,2.9c0,1.1-0.4,2.2-1.2,3c-0.8,0.8-1.9,1.2-3,1.2
							c-1.1,0-2.2-0.4-3-1.2c-0.8-0.8-1.2-1.9-1.2-3C36.8,9.8,37.2,8.8,38,8L38,8z M42.6,9.2c-0.4-0.5-1-0.7-1.6-0.7
							c-0.6,0-1.2,0.2-1.6,0.7c-0.4,0.4-0.7,1.1-0.7,1.7c0,0.6,0.2,1.2,0.7,1.7c0.4,0.5,1,0.7,1.6,0.7c0.6,0,1.2-0.2,1.6-0.7
							c0.4-0.5,0.7-1.1,0.7-1.7C43.3,10.3,43.1,9.7,42.6,9.2L42.6,9.2z M50.7,13.7c0.2,0.4,0,0.9-0.4,1c0,0,0,0,0,0
							c-0.5,0.2-1,0.3-1.6,0.3C46.9,15.1,46,14,46,12l0-7c0-0.4,0.4-0.8,0.8-0.8h0.3c0.4,0,0.8,0.4,0.8,0.8c0,0,0,0,0,0v2h1.9
							c0.4,0,0.8,0.4,0.8,0.8c0,0,0,0,0,0v0c0,0.4-0.4,0.8-0.8,0.8c0,0,0,0,0,0h-1.9v3.3c0,0.9,0.4,1.4,1.1,1.4c0.2,0,0.5,0,0.7-0.1
							C50.1,13.1,50.5,13.3,50.7,13.7L50.7,13.7z M57.9,11.6h-5.2c0.2,1.1,1.3,1.9,2.4,1.8c0.7,0,1.3-0.1,2-0.4c0.4-0.2,0.8,0,1,0.3
							l0,0c0.2,0.4,0.1,0.9-0.3,1.1c0,0,0,0,0,0C56.9,14.8,56,15.1,55,15c-2.2,0.2-4.1-1.4-4.3-3.6c0-0.2,0-0.3,0-0.5
							c0-1.1,0.4-2.2,1.1-2.9c0.8-0.8,1.9-1.2,3-1.2c1,0,2.1,0.4,2.8,1.1c0.8,0.8,1.2,1.8,1.1,2.9v0C58.7,11.2,58.4,11.6,57.9,11.6
							L57.9,11.6z M52.7,10.2h4.2c-0.1-1-1-1.8-2-1.8C53.8,8.4,52.9,9.1,52.7,10.2L52.7,10.2z M60.4,13.9c-0.8-0.8-1.2-1.9-1.2-3
							c0-1.1,0.4-2.2,1.2-3c0.8-0.8,1.9-1.2,3-1.2c1.2,0,2.3,0.5,3.1,1.3c0.3,0.3,0.2,0.8-0.1,1.1c0,0-0.1,0.1-0.1,0.1l-0.2,0.1
							c-0.3,0.2-0.7,0.1-0.9-0.1c-0.4-0.5-1.1-0.8-1.7-0.8c-0.6,0-1.3,0.2-1.7,0.7c-0.4,0.5-0.7,1.1-0.7,1.7c0,0.6,0.2,1.2,0.7,1.7
							c0.4,0.5,1,0.7,1.7,0.7c0.7,0,1.3-0.3,1.8-0.8c0.3-0.3,0.6-0.3,1-0.1l0.2,0.1c0.4,0.2,0.5,0.7,0.3,1.1c0,0-0.1,0.1-0.1,0.1
							c-0.8,0.9-2,1.3-3.1,1.3C62.3,15.1,61.2,14.7,60.4,13.9L60.4,13.9z"/>
					</g>
				</g>
				<g class="st1">
					<path class="st0" d="M7.5,9.8c1,0,1.6,0.7,1.6,1.6c0,1-0.7,1.6-1.7,1.6H6.3v1.7H5.5V9.8H7.5z M6.3,12.4h1c0.7,0,1-0.4,1-1
						c0-0.6-0.4-1-1-1h-1V12.4z"/>
					<path class="st0" d="M9.5,12.9c0-1.2,0.7-1.9,1.8-1.9c1.1,0,1.8,0.7,1.8,1.9c0,1.2-0.7,1.9-1.8,1.9
						C10.2,14.8,9.5,14.1,9.5,12.9z M12.2,12.9c0-0.8-0.4-1.3-1-1.3c-0.6,0-1,0.5-1,1.3c0,0.8,0.4,1.3,1,1.3
						C11.9,14.2,12.2,13.7,12.2,12.9z"/>
					<path class="st0" d="M17.3,14.8h-0.8L15.8,12h-0.1L15,14.8h-0.8l-1-3.7H14l0.7,2.9h0.1l0.8-2.9h0.7l0.8,2.9H17l0.7-2.9h0.7
						L17.3,14.8z"/>
					<path class="st0" d="M21.9,13.8c-0.2,0.7-0.8,1.1-1.6,1.1c-1.1,0-1.7-0.7-1.7-1.9c0-1.2,0.7-1.9,1.7-1.9c1,0,1.7,0.7,1.7,1.9
						v0.3h-2.6v0c0,0.7,0.4,1.1,1,1.1c0.4,0,0.7-0.2,0.9-0.5H21.9z M19.3,12.6h1.9c0-0.6-0.4-1-0.9-1S19.4,12,19.3,12.6z"/>
					<path class="st0" d="M22.6,11h0.7v0.6h0.1c0.1-0.4,0.5-0.6,1-0.6c0.1,0,0.2,0,0.3,0v0.7c-0.1,0-0.3,0-0.4,0c-0.6,0-1,0.4-1,0.9
						v2.2h-0.7V11z"/>
					<path class="st0" d="M28.3,13.8c-0.2,0.7-0.8,1.1-1.6,1.1c-1.1,0-1.7-0.7-1.7-1.9c0-1.2,0.7-1.9,1.7-1.9c1,0,1.7,0.7,1.7,1.9
						v0.3h-2.6v0c0,0.7,0.4,1.1,1,1.1c0.4,0,0.7-0.2,0.9-0.5H28.3z M25.7,12.6h1.9c0-0.6-0.4-1-0.9-1S25.7,12,25.7,12.6z"/>
					<path class="st0" d="M28.8,12.9c0-1.2,0.6-1.9,1.5-1.9c0.5,0,0.9,0.2,1.1,0.7h0.1v-2h0.7v5.2h-0.7v-0.6h-0.1
						c-0.2,0.4-0.7,0.6-1.2,0.6C29.4,14.8,28.8,14.1,28.8,12.9z M29.6,12.9c0,0.8,0.4,1.3,1,1.3c0.6,0,1-0.5,1-1.3
						c0-0.8-0.4-1.3-1-1.3C30,11.6,29.6,12.1,29.6,12.9z"/>
					<path class="st0" d="M35,14.8V9.8h2c0.9,0,1.5,0.5,1.5,1.2c0,0.5-0.4,1-0.9,1.1v0.1c0.7,0.1,1.1,0.5,1.1,1.2
						c0,0.9-0.6,1.4-1.7,1.4H35z M35.7,11.9h0.9c0.7,0,1-0.3,1-0.7c0-0.5-0.3-0.7-0.9-0.7h-1V11.9z M36.8,14.1
						c0.7,0,1.1-0.3,1.1-0.8s-0.4-0.8-1.1-0.8h-1.1v1.6H36.8z"/>
					<path class="st0" d="M39.4,16.1v-0.6c0.1,0,0.2,0,0.2,0c0.3,0,0.5-0.1,0.7-0.5l0.1-0.2L39.1,11h0.8l0.9,3h0.1l0.9-3h0.8
						l-1.4,3.9c-0.3,0.9-0.7,1.2-1.4,1.2C39.7,16.1,39.5,16.1,39.4,16.1z"/>
				</g>
			</g>
		</g>
	</g>
	<g id="Group_3926" transform="translate(44.427)">
		<g id="Group_3926-2" transform="translate(0 6.52)" class="st2">
			<g id="Path_7728">
				<path class="st0" d="M23.5,20.1c-1.3-1.4-1.9-3.2-1.9-5.1V5.6c0-0.5,0.4-0.9,0.9-0.9l0,0l0,0c0.5,0,0.9,0.4,0.9,0.9v0v9.3
					c0,3.3,1.9,5.3,5,5.3c3.2,0,5-2,5-5.3V5.6c0-0.5,0.4-0.9,0.9-0.9l0,0l0,0c0.5,0,0.9,0.4,1,0.9c0,0,0,0,0,0v9.4c0,3.9-3.1,7-7,7
					c0,0,0,0,0,0C26.7,22,24.9,21.4,23.5,20.1z"/>
			</g>
			<g id="Path_7729">
				<path class="st0" d="M16.9,6.1c1.3,1.4,1.9,3.2,1.9,5.1v9.4c0,0.5-0.4,0.9-0.9,0.9l0,0l0,0c-0.5,0-0.9-0.4-1-0.9v-9.3
					c0-3.3-1.9-5.3-5-5.3c-3.2,0-5,2-5,5.3v9.3c0,0.5-0.4,0.9-1,0.9l0,0c-0.5,0-0.9-0.4-0.9-0.9v0v-9.4c0-3.9,3.1-7,7-7c0,0,0,0,0,0
					C13.7,4.1,15.5,4.8,16.9,6.1z"/>
			</g>
			<g id="Path_7730">
				<path class="st0" d="M53.9,13.8H39.6c0.3,3.8,2.7,6.3,6.9,6.3c1.9,0,3.8-0.5,5.5-1.5c0.4-0.3,0.9-0.1,1.2,0.2c0,0,0,0,0,0l0,0
					c0.2,0.4,0.1,0.9-0.2,1.1c-1.9,1.2-4.2,1.9-6.5,1.9c-6.2,0-8.8-4.5-8.8-8.9c-0.1-2.3,0.7-4.6,2.3-6.3c1.6-1.7,3.8-2.6,6.1-2.5
					c2.1-0.1,4.1,0.7,5.6,2.2c1.5,1.6,2.4,3.7,2.2,5.9C54,12.6,53.9,13.1,53.9,13.8z M39.6,12.1H52C52,8.3,49.5,6,46.1,6
					C42.5,6,40,8.4,39.6,12.1z"/>
			</g>
			<g id="Path_7731">
				<path class="st0" d="M68.2,4.6L68.2,4.6c0.5,0,1,0.4,1,1c0,0.1,0,0.3-0.1,0.4l-6.6,15c-0.1,0.3-0.5,0.5-0.8,0.5l0,0
					c-0.4,0-0.7-0.2-0.8-0.5L54.1,6c-0.2-0.5,0-1,0.5-1.3c0.1-0.1,0.3-0.1,0.4-0.1l0,0c0.4,0,0.7,0.2,0.9,0.6l5.7,13.4l5.7-13.4
					C67.4,4.9,67.8,4.6,68.2,4.6z"/>
			</g>
			<g id="Path_7732">
				<path class="st0" d="M71.5,6.8c1.6-1.7,3.9-2.6,6.3-2.6c2.4-0.1,4.7,0.9,6.3,2.6c1.7,1.7,2.6,3.9,2.5,6.3
					c0.1,2.4-0.8,4.6-2.5,6.3c-1.6,1.7-3.9,2.6-6.3,2.6c-2.4,0.1-4.7-0.9-6.3-2.6c-1.7-1.7-2.6-4-2.5-6.3C69,10.7,69.9,8.4,71.5,6.8
					z M82.8,18.2c1.3-1.4,2-3.2,2-5.1c0-1.9-0.7-3.7-2-5.1c-1.3-1.4-3.1-2.1-4.9-2.1c-1.9,0-3.7,0.7-4.9,2.1c-1.3,1.3-2,3.2-2,5
					c0,1.9,0.7,3.7,2,5.1c1.3,1.3,3.1,2.1,4.9,2.1C79.7,20.3,81.5,19.5,82.8,18.2z"/>
			</g>
		</g>
		<g id="Group_3927" transform="translate(83.664)">
			<g id="Path_7733">
				<path class="st0" d="M20.4,13.1c1.6,1.7,2.4,3.9,2.4,6.3c0.1,2.3-0.8,4.6-2.4,6.3c-1.5,1.7-3.7,2.6-6,2.6
					c-2.1,0-4.1-0.9-5.4-2.5v7.4c0,0.9-0.8,1.7-1.7,1.7c0,0,0,0,0,0H6.6c-0.9,0-1.7-0.8-1.7-1.7V12.6c0-0.9,0.8-1.7,1.7-1.7h0.7
					c0.9,0,1.7,0.8,1.7,1.7v0.5c1.3-1.7,3.4-2.7,5.5-2.6C16.7,10.5,18.9,11.4,20.4,13.1z M10.3,23.1c0.9,1,2.2,1.5,3.5,1.5
					c1.3,0,2.6-0.5,3.5-1.5c0.9-1,1.4-2.3,1.4-3.7c0-1.3-0.5-2.7-1.4-3.6c-0.9-1-2.2-1.5-3.5-1.5c-1.3,0-2.6,0.5-3.5,1.5
					c-0.9,1-1.4,2.3-1.4,3.6C8.9,20.8,9.3,22.1,10.3,23.1z"/>
			</g>
			<g id="Path_7734">
				<path class="st0" d="M39.5,11H40c0.9,0,1.7,0.8,1.7,1.7c0,0,0,0,0,0v13.5c0,0.9-0.8,1.7-1.7,1.7c0,0,0,0,0,0h-0.5
					c-0.9,0-1.7-0.8-1.7-1.7c0,0,0,0,0,0v-0.4c-1.4,1.6-3.4,2.5-5.5,2.5c-2.3,0.1-4.5-0.9-6-2.6c-1.6-1.7-2.4-4-2.4-6.4
					c-0.1-2.3,0.8-4.6,2.4-6.3c1.6-1.6,3.7-2.5,6-2.5c2.1,0,4.1,0.9,5.5,2.6v-0.5C37.8,11.7,38.6,11,39.5,11L39.5,11z M36.5,15.7
					c-0.9-1-2.2-1.5-3.6-1.5c-1.4,0-2.7,0.5-3.6,1.5c-0.9,1-1.4,2.3-1.4,3.6c0,1.4,0.5,2.7,1.4,3.7c0.9,1,2.2,1.5,3.6,1.5
					c1.4,0,2.7-0.5,3.6-1.5c0.9-1,1.4-2.3,1.4-3.7C37.9,18,37.4,16.7,36.5,15.7L36.5,15.7z"/>
			</g>
			<g id="Path_7735">
				<path class="st0" d="M68.1,27.2l-5.3-6.7l-1.2,1.1v4.6c0,0.9-0.8,1.7-1.7,1.7h-0.7c-0.9,0-1.7-0.8-1.7-1.7c0,0,0,0,0,0V5.9
					c0-0.9,0.8-1.7,1.7-1.7h0.7c0.9,0,1.7,0.8,1.7,1.7c0,0,0,0,0,0V17l6-5.6c0.3-0.3,0.7-0.5,1.2-0.5h0.1c0.9,0,1.7,0.8,1.7,1.7
					c0,0.5-0.2,0.9-0.6,1.3l-4.4,4l5.8,7.2c0.6,0.7,0.5,1.8-0.3,2.4c-0.3,0.2-0.7,0.4-1.1,0.4h-0.7C68.9,27.9,68.4,27.6,68.1,27.2z"
					/>
			</g>
			<g id="Path_7736">
				<path class="st0" d="M51.8,10.8c-4.8,0-7.7,2.8-7.7,7.5v8.2c0,0.9,0.7,1.7,1.7,1.7h0.8c0.9,0,1.7-0.7,1.7-1.7v-8.2
					c-0.2-1.9,1.2-3.6,3-3.8c0.2,0,0.4,0,0.5,0c0.6,0,1.2,0.1,1.7,0.4c0.7,0.4,1.7,0.1,2.1-0.6l0.3-0.5c0.5-0.8,0.2-1.8-0.5-2.3
					c-0.1,0-0.2-0.1-0.2-0.1C54.1,10.9,53,10.7,51.8,10.8z"/>
			</g>
		</g>
	</g>
	<g id="Path_7737">
		<path class="st0" d="M30.8,6.8c-0.4-0.4-0.8-0.6-1.3-0.6c-0.5,0-1,0.2-1.3,0.6l-2.1,2.1c-0.7,0.7-0.7,1.9,0,2.7c0,0,0,0,0,0
			l4.3,4.3c1.9,1.9,1.9,5,0,6.9c0,0,0,0,0,0l-2.4,2.4c-0.6,0.6-1.5,0.6-2.1,0c0,0,0,0,0,0l0,0c-0.6-0.6-0.6-1.5,0-2.1c0,0,0,0,0,0
			l2.4-2.4c0.7-0.7,0.7-1.9,0-2.7l-5.6-5.6l-2.1-2.1l-3.4-3.4c-0.4-0.4-0.8-0.6-1.3-0.6c-0.5,0-1,0.2-1.3,0.6L7,14.2
			C4.2,17,4.2,21.5,7,24.3c0,0,0,0,0,0l7.4,7.4c0.4,0.4,0.8,0.6,1.3,0.6c0.5,0,1-0.2,1.3-0.6l2.1-2.1c0.7-0.7,0.7-1.9,0-2.7
			l-4.3-4.3c-1.9-1.9-1.9-5,0-6.9l2.4-2.4c0.6-0.6,1.5-0.6,2.1,0l0,0c0.6,0.6,0.6,1.5,0,2.1c0,0,0,0,0,0L17,17.9
			c-0.7,0.7-0.7,1.9,0,2.7l5.6,5.6l2.1,2.1l3.4,3.4c0.4,0.4,0.8,0.6,1.3,0.6c0.5,0,1-0.2,1.3-0.6l7.4-7.4c2.8-2.8,2.8-7.3,0-10.1
			c0,0,0,0,0,0L30.8,6.8z"/>
	</g>
</g>
</svg>
