<?xml version="1.0" encoding="utf-8"?>
<!-- Generator: Adobe Illustrator 25.0.0, SVG Export Plug-In . SVG Version: 6.00 Build 0)  -->
<svg version="1.1" id="Layer_1" xmlns="http://www.w3.org/2000/svg" xmlns:xlink="http://www.w3.org/1999/xlink" x="0px" y="0px"
	 viewBox="0 0 207.9 54.9" style="enable-background:new 0 0 207.9 54.9;" xml:space="preserve">
<style type="text/css">
	.st0{fill:#FFFFFF;}
	.st1{enable-background:new    ;}
	.st2{opacity:0.8;}
</style>
<g id="Group_1" transform="translate(72.101 27.514)">
	<g id="Group_2522_1_">
		<g id="Group_2523_1_" transform="translate(0 0)">
			<g id="Group_2250_1_" transform="translate(41.413)">
				<g id="Path_1746_1_">
					<path class="st0" d="M36.5,15v-3.7c0-0.4,0.4-0.8,0.8-0.8c0,0,0,0,0,0h0.3c0.4,0,0.8,0.4,0.8,0.8c0,0,0,0,0,0v3.8
						c-0.1,0.9,0.5,1.7,1.4,1.7c0.1,0,0.2,0,0.2,0c0.9,0,1.6-0.6,1.7-1.5c0-0.1,0-0.2,0-0.2v-3.8c0-0.4,0.4-0.8,0.8-0.8c0,0,0,0,0,0
						h0.3c0.4,0,0.8,0.4,0.8,0.8c0,0,0,0,0,0v3.8c0.1,1.8-1.2,3.3-3,3.5c-0.2,0-0.4,0-0.5,0C38.1,18.6,36.5,17,36.5,15
						C36.5,15,36.5,15,36.5,15z M35.2,13.9v3.7c0,0.4-0.4,0.8-0.8,0.8c0,0,0,0,0,0h-0.3c-0.4,0-0.8-0.4-0.8-0.8c0,0,0,0,0,0v-3.8
						c0.1-0.9-0.5-1.7-1.4-1.7c-0.1,0-0.2,0-0.2,0c-0.9,0-1.6,0.6-1.7,1.5c0,0.1,0,0.2,0,0.2v3.8c0,0.4-0.4,0.8-0.8,0.8c0,0,0,0,0,0
						h-0.3c-0.4,0-0.8-0.4-0.8-0.8c0,0,0,0,0,0v-3.8c-0.1-1.8,1.2-3.3,3-3.5c0.2,0,0.4,0,0.5,0C33.5,10.3,35.2,11.9,35.2,13.9
						C35.2,13.9,35.2,13.9,35.2,13.9L35.2,13.9z M51.6,15.1h-5.3c0.2,1.1,1.3,1.9,2.4,1.8c0.7,0,1.3-0.1,2-0.4c0.4-0.2,0.8,0,1,0.3
						l0,0c0.2,0.4,0.1,0.9-0.3,1.1c0,0,0,0,0,0c-0.8,0.4-1.8,0.7-2.8,0.7c-2.2,0.2-4.1-1.4-4.3-3.6c0-0.2,0-0.3,0-0.5
						c0-1.1,0.4-2.2,1.1-2.9c0.8-0.8,1.9-1.2,3-1.2c1,0,2.1,0.4,2.8,1.1c0.8,0.8,1.2,1.8,1.1,2.9c0,0,0,0,0,0.1
						C52.4,14.8,52,15.1,51.6,15.1L51.6,15.1z M46.3,13.7h4.2c-0.1-1-1-1.8-2-1.8C47.4,11.9,46.5,12.6,46.3,13.7L46.3,13.7z
						 M58.8,10.5h0.3c0.4,0,0.8,0.4,0.8,0.8c0,0.1,0,0.2-0.1,0.3l-2.8,6.3c-0.1,0.3-0.4,0.5-0.7,0.5H56c-0.3,0-0.6-0.2-0.7-0.5
						l-2.7-6.3c-0.2-0.4,0-0.9,0.4-1c0.1,0,0.2-0.1,0.3-0.1h0.3c0.3,0,0.6,0.2,0.7,0.5l1.9,4.8l1.9-4.8
						C58.2,10.7,58.5,10.5,58.8,10.5L58.8,10.5z M61.1,11.5c0.8-0.8,1.9-1.2,3-1.2c1.1,0,2.2,0.4,3,1.2c0.8,0.8,1.2,1.8,1.2,2.9
						c0,1.1-0.4,2.2-1.2,3c-0.8,0.8-1.9,1.2-3,1.2c-1.1,0-2.2-0.4-3-1.2c-0.8-0.8-1.2-1.9-1.2-3C59.9,13.3,60.4,12.3,61.1,11.5
						L61.1,11.5z M65.8,12.8c-0.4-0.5-1-0.7-1.6-0.7c-0.6,0-1.2,0.2-1.6,0.7c-0.4,0.4-0.7,1.1-0.7,1.7c0,0.6,0.2,1.2,0.7,1.7
						c0.4,0.5,1,0.7,1.6,0.7c0.6,0,1.2-0.2,1.6-0.7c0.4-0.5,0.7-1.1,0.7-1.7C66.5,13.8,66.2,13.2,65.8,12.8L65.8,12.8z M73.8,17.3
						c0.2,0.4,0,0.9-0.4,1c0,0,0,0,0,0c-0.5,0.2-1,0.3-1.6,0.3c-1.8,0-2.7-1.1-2.7-3.1l0-7c0-0.4,0.4-0.8,0.8-0.8h0.3
						c0.4,0,0.8,0.4,0.8,0.8c0,0,0,0,0,0v2h1.9c0.4,0,0.8,0.4,0.8,0.8c0,0,0,0,0,0v0c0,0.4-0.4,0.8-0.8,0.8c0,0,0,0,0,0H71v3.3
						c0,0.9,0.4,1.4,1.1,1.4c0.2,0,0.5,0,0.7-0.1C73.3,16.6,73.7,16.8,73.8,17.3L73.8,17.3z M81.1,15.1h-5.2
						c0.2,1.1,1.3,1.9,2.4,1.8c0.7,0,1.3-0.1,2-0.4c0.4-0.2,0.8,0,1,0.3l0,0c0.2,0.4,0.1,0.9-0.3,1.1c0,0,0,0,0,0
						c-0.8,0.4-1.8,0.7-2.8,0.7c-2.2,0.2-4.1-1.4-4.3-3.6c0-0.2,0-0.3,0-0.5c0-1.1,0.4-2.2,1.1-2.9c0.8-0.8,1.9-1.2,3-1.2
						c1,0,2.1,0.4,2.8,1.1c0.8,0.8,1.2,1.8,1.1,2.9v0C81.9,14.7,81.5,15.1,81.1,15.1L81.1,15.1z M75.8,13.7H80c-0.1-1-1-1.8-2-1.8
						C76.9,11.9,76,12.6,75.8,13.7L75.8,13.7z M83.5,17.4c-0.8-0.8-1.2-1.9-1.2-3c0-1.1,0.4-2.2,1.2-3c0.8-0.8,1.9-1.2,3-1.2
						c1.2,0,2.3,0.5,3.1,1.3c0.3,0.3,0.2,0.8-0.1,1.1c0,0-0.1,0.1-0.1,0.1L89.3,13c-0.3,0.2-0.7,0.1-0.9-0.1
						c-0.4-0.5-1.1-0.8-1.7-0.8c-0.6,0-1.3,0.2-1.7,0.7c-0.4,0.5-0.7,1.1-0.7,1.7c0,0.6,0.2,1.2,0.7,1.7c0.4,0.5,1,0.7,1.7,0.7
						c0.7,0,1.3-0.3,1.8-0.8c0.3-0.3,0.6-0.3,1-0.1l0.2,0.1c0.4,0.2,0.5,0.7,0.3,1.1c0,0-0.1,0.1-0.1,0.1c-0.8,0.9-2,1.3-3.1,1.3
						C85.4,18.6,84.3,18.2,83.5,17.4L83.5,17.4z"/>
				</g>
			</g>
			<g class="st1">
				<path class="st0" d="M30.6,13.3c1,0,1.6,0.7,1.6,1.6c0,1-0.7,1.6-1.7,1.6h-1.1v1.7h-0.8v-4.9H30.6z M29.4,15.9h1
					c0.7,0,1-0.4,1-1c0-0.6-0.4-1-1-1h-1V15.9z"/>
				<path class="st0" d="M32.6,16.4c0-1.2,0.7-1.9,1.8-1.9c1.1,0,1.8,0.7,1.8,1.9c0,1.2-0.7,1.9-1.8,1.9
					C33.3,18.3,32.6,17.6,32.6,16.4z M35.4,16.4c0-0.8-0.4-1.3-1-1.3c-0.6,0-1,0.5-1,1.3c0,0.8,0.4,1.3,1,1.3
					C35,17.7,35.4,17.2,35.4,16.4z"/>
				<path class="st0" d="M40.5,18.3h-0.8L39,15.5h-0.1l-0.8,2.8h-0.8l-1-3.7h0.7l0.7,2.9h0.1l0.8-2.9h0.7l0.8,2.9h0.1l0.7-2.9h0.7
					L40.5,18.3z"/>
				<path class="st0" d="M45.1,17.3c-0.2,0.7-0.8,1.1-1.6,1.1c-1.1,0-1.7-0.7-1.7-1.9c0-1.2,0.7-1.9,1.7-1.9c1,0,1.7,0.7,1.7,1.9
					v0.3h-2.6v0c0,0.7,0.4,1.1,1,1.1c0.4,0,0.7-0.2,0.9-0.5H45.1z M42.5,16.1h1.9c0-0.6-0.4-1-0.9-1C42.9,15.1,42.5,15.5,42.5,16.1z
					"/>
				<path class="st0" d="M45.8,14.6h0.7v0.6h0.1c0.1-0.4,0.5-0.6,1-0.6c0.1,0,0.2,0,0.3,0v0.7c-0.1,0-0.3,0-0.4,0
					c-0.6,0-1,0.4-1,0.9v2.2h-0.7V14.6z"/>
				<path class="st0" d="M51.4,17.3c-0.2,0.7-0.8,1.1-1.6,1.1c-1.1,0-1.7-0.7-1.7-1.9c0-1.2,0.7-1.9,1.7-1.9c1,0,1.7,0.7,1.7,1.9
					v0.3h-2.6v0c0,0.7,0.4,1.1,1,1.1c0.4,0,0.7-0.2,0.9-0.5H51.4z M48.9,16.1h1.9c0-0.6-0.4-1-0.9-1C49.3,15.1,48.9,15.5,48.9,16.1z
					"/>
				<path class="st0" d="M52,16.4c0-1.2,0.6-1.9,1.5-1.9c0.5,0,0.9,0.2,1.1,0.7h0.1v-2h0.7v5.2h-0.7v-0.6h-0.1
					c-0.2,0.4-0.7,0.6-1.2,0.6C52.6,18.3,52,17.6,52,16.4z M52.7,16.4c0,0.8,0.4,1.3,1,1.3c0.6,0,1-0.5,1-1.3c0-0.8-0.4-1.3-1-1.3
					C53.1,15.1,52.7,15.6,52.7,16.4z"/>
				<path class="st0" d="M58.1,18.3v-4.9h2c0.9,0,1.5,0.5,1.5,1.2c0,0.5-0.4,1-0.9,1.1v0.1c0.7,0.1,1.1,0.5,1.1,1.2
					c0,0.9-0.6,1.4-1.7,1.4H58.1z M58.9,15.4h0.9c0.7,0,1-0.3,1-0.7c0-0.5-0.3-0.7-0.9-0.7h-1V15.4z M60,17.6c0.7,0,1.1-0.3,1.1-0.8
					S60.7,16,60,16h-1.1v1.6H60z"/>
				<path class="st0" d="M62.6,19.6V19c0.1,0,0.2,0,0.2,0c0.3,0,0.5-0.1,0.7-0.5l0.1-0.2l-1.3-3.7H63l0.9,3H64l0.9-3h0.8l-1.4,3.9
					c-0.3,0.9-0.7,1.2-1.4,1.2C62.8,19.6,62.7,19.6,62.6,19.6z"/>
			</g>
		</g>
	</g>
</g>
<g id="Path_7600">
	<path class="st0" d="M53.5,8.2c-0.3-0.3-0.8-0.5-1.2-0.5c-0.5,0-0.9,0.2-1.2,0.5l-1.9,1.9c-0.7,0.7-0.7,1.8,0,2.4c0,0,0,0,0,0
		l3.9,3.9c1.7,1.7,1.7,4.5,0,6.3c0,0,0,0,0,0l-2.2,2.2c-0.5,0.5-1.4,0.5-1.9,0c0,0,0,0,0,0l0,0c-0.5-0.5-0.5-1.4,0-1.9c0,0,0,0,0,0
		l2.2-2.2c0.7-0.7,0.7-1.8,0-2.4c0,0,0,0,0,0l-5.1-5.1l-1.9-1.9l-3.1-3.1c-0.3-0.3-0.8-0.5-1.2-0.5c-0.5,0-0.9,0.2-1.2,0.5
		L28.6,18.3c-0.7,0.7-0.7,1.8,0,2.4l10.1,10.1c0.3,0.3,0.8,0.5,1.2,0.5c0.5,0,0.9-0.2,1.2-0.5L43,29c0.7-0.7,0.7-1.8,0-2.4
		c0,0,0,0,0,0l-3.9-3.9c-1.7-1.7-1.7-4.5,0-6.3c0,0,0,0,0,0l2.2-2.2c0.5-0.5,1.4-0.5,1.9,0c0,0,0,0,0,0l0,0c0.5,0.5,0.5,1.4,0,1.9
		c0,0,0,0,0,0L41,18.3c-0.7,0.7-0.7,1.8,0,2.4l5.1,5.1l1.9,1.9l3.1,3.1c0.3,0.3,0.8,0.5,1.2,0.5c0.5,0,0.9-0.2,1.2-0.5l10.1-10.1
		c0.7-0.7,0.7-1.8,0-2.4L53.5,8.2z"/>
</g>
<g id="Group_3870" transform="translate(41.572 3.957)">
	<g id="Group_3870-2" class="st2">
		<g id="Path_7657">
			<path class="st0" d="M46.1,23.1c-1.2-1.4-1.9-3.1-1.8-5V9.1c0-0.5,0.4-0.9,0.9-0.9l0,0c0.5,0,0.9,0.4,0.9,0.9c0,0,0,0,0,0v9
				c0,3.2,1.9,5.1,4.8,5.1c3.1,0,4.9-2,4.9-5.1v-9c0-0.5,0.4-0.9,0.9-0.9c0,0,0,0,0,0l0,0c0.5,0,0.9,0.4,0.9,0.9v9.1
				c0,3.7-3,6.8-6.8,6.8c0,0,0,0,0,0C49.1,25,47.4,24.3,46.1,23.1z"/>
		</g>
		<g id="Path_7658">
			<path class="st0" d="M39.7,9.6c1.2,1.4,1.9,3.1,1.8,5v9.1c0,0.5-0.4,0.9-0.9,0.9l0,0c-0.5,0-0.9-0.4-0.9-0.9c0,0,0,0,0,0v-9
				c0-3.2-1.9-5.1-4.8-5.1c-3.1,0-4.9,2-4.9,5.1v9c0,0.5-0.4,0.9-0.9,0.9l0,0c-0.5,0-0.9-0.4-0.9-0.9v-9.1c0-3.7,3-6.8,6.8-6.8
				c0,0,0,0,0,0C36.6,7.7,38.4,8.3,39.7,9.6z"/>
		</g>
		<g id="Path_7659">
			<path class="st0" d="M75.5,17.1H61.7c0,3.4,2.8,6.2,6.3,6.1c0.1,0,0.3,0,0.4,0c1.9,0,3.7-0.5,5.3-1.5c0.4-0.2,0.9-0.1,1.1,0.2
				c0,0,0,0,0,0l0,0c0.2,0.4,0.1,0.9-0.2,1.1c-1.9,1.2-4,1.8-6.3,1.8c-6,0-8.5-4.3-8.5-8.6c-0.1-2.3,0.7-4.5,2.2-6.1
				c1.5-1.6,3.7-2.5,5.9-2.4c2-0.1,4,0.7,5.5,2.1c1.5,1.5,2.3,3.6,2.2,5.7C75.6,15.8,75.5,16.3,75.5,17.1z M61.7,15.4h12
				c0-3.6-2.4-5.9-5.7-5.9C64.5,9.4,62.1,11.8,61.7,15.4L61.7,15.4z"/>
		</g>
		<g id="Path_7660">
			<path class="st0" d="M89.3,8.1L89.3,8.1c0.5,0,0.9,0.4,0.9,0.9c0,0.1,0,0.3-0.1,0.4L83.8,24c-0.1,0.3-0.5,0.5-0.8,0.5l0,0
				c-0.3,0-0.7-0.2-0.8-0.5L75.7,9.4c-0.2-0.5,0-1,0.5-1.2c0.1-0.1,0.2-0.1,0.4-0.1l0,0c0.4,0,0.7,0.2,0.8,0.6l5.6,13l5.5-13
				C88.6,8.4,89,8.1,89.3,8.1z"/>
		</g>
		<g id="Path_7661">
			<path class="st0" d="M92.6,10.2c1.6-1.6,3.8-2.5,6.1-2.5c2.3-0.1,4.5,0.8,6.1,2.5c1.6,1.6,2.5,3.8,2.4,6.1
				c0.1,2.3-0.8,4.5-2.4,6.1c-1.6,1.6-3.8,2.5-6.1,2.5c-2.3,0.1-4.5-0.8-6.1-2.5c-1.6-1.6-2.5-3.8-2.4-6.1
				C90.1,14,91,11.8,92.6,10.2z M103.5,21.3c1.3-1.3,1.9-3.1,1.9-4.9c0-1.8-0.6-3.6-1.9-4.9c-1.2-1.3-3-2-4.8-2
				c-1.8,0-3.5,0.7-4.8,2c-1.3,1.3-1.9,3.1-1.9,4.9c0,1.8,0.6,3.6,1.9,4.9c1.2,1.3,3,2,4.8,2C100.5,23.3,102.2,22.6,103.5,21.3
				L103.5,21.3z"/>
		</g>
	</g>
	<g id="Group_3871" transform="translate(81.71 0.015)">
		<g id="Path_7662">
			<path class="st0" d="M43.1,10.2c1.5,1.6,2.3,3.8,2.3,6.1c0.1,2.3-0.8,4.5-2.3,6.1c-1.5,1.6-3.6,2.5-5.8,2.5c-2,0-4-0.9-5.3-2.4
				v6.8c0,1.1-0.9,2-2,2h0c-1.1,0-2-0.9-2-2c0,0,0,0,0,0V10.1c0-1.1,0.9-2,2-2c0,0,0,0,0,0l0,0c1.1,0,2,0.9,2,2v0.2
				c1.3-1.6,3.3-2.6,5.3-2.6C39.5,7.7,41.6,8.6,43.1,10.2z M33.3,19.9c0.9,0.9,2.1,1.5,3.4,1.4c1.3,0,2.5-0.5,3.4-1.4
				c0.9-1,1.4-2.2,1.3-3.6c0-1.3-0.4-2.6-1.3-3.5c-0.9-1-2.1-1.5-3.4-1.4c-1.3,0-2.6,0.5-3.4,1.4c-0.9,1-1.4,2.2-1.3,3.5
				C31.9,17.6,32.4,18.9,33.3,19.9z"/>
		</g>
		<g id="Path_7663">
			<path class="st0" d="M61.8,8.1L61.8,8.1c1,0,1.9,0.8,1.9,1.9l0,0v12.6c0,1-0.8,1.9-1.9,1.9l0,0l0,0c-1,0-1.9-0.8-1.9-1.9l0,0
				v-0.2c-1.3,1.6-3.3,2.4-5.3,2.4c-2.2,0.1-4.3-0.8-5.8-2.5c-1.5-1.7-2.4-3.9-2.3-6.2c-0.1-2.3,0.7-4.4,2.3-6.1
				c1.5-1.6,3.6-2.5,5.8-2.4c2.1,0,4,0.9,5.3,2.5V10C59.9,8.9,60.8,8.1,61.8,8.1C61.8,8.1,61.8,8.1,61.8,8.1z M58.7,12.8
				c-0.9-1-2.2-1.5-3.5-1.4c-1.3,0-2.6,0.5-3.5,1.4c-0.9,1-1.4,2.2-1.3,3.5c0,1.3,0.4,2.6,1.3,3.6c0.9,1,2.2,1.5,3.5,1.4
				c1.3,0,2.6-0.5,3.5-1.4c0.9-1,1.4-2.2,1.4-3.6C60.1,15,59.6,13.7,58.7,12.8z"/>
		</g>
		<g id="Path_7664">
			<path class="st0" d="M77.9,8.1h0.5c1,0,1.8,0.8,1.8,1.8c0,0.2,0,0.4-0.1,0.6l-5.7,15c-1.6,4-3.6,5.9-6.7,5.9
				c-0.5,0-0.9,0-1.4-0.1c-0.9-0.2-1.5-1.1-1.3-2l0,0c0.2-0.9,1-1.5,2-1.4c0.2,0,0.3,0,0.5,0c1.3,0,2.4-0.9,3.2-2.7l0.4-0.9
				l-6.1-13.8c-0.4-0.9,0-1.9,0.9-2.3c0.2-0.1,0.5-0.1,0.7-0.1h0.7c0.7,0,1.4,0.4,1.6,1.1l4,10l3.5-9.9C76.5,8.6,77.2,8.1,77.9,8.1z
				"/>
		</g>
	</g>
</g>
</svg>
