<?xml version="1.0" encoding="utf-8"?>
<!-- Generator: Adobe Illustrator 25.0.0, SVG Export Plug-In . SVG Version: 6.00 Build 0)  -->
<svg version="1.1" id="Layer_1" xmlns="http://www.w3.org/2000/svg" xmlns:xlink="http://www.w3.org/1999/xlink" x="0px" y="0px"
	 viewBox="0 0 65 51" style="enable-background:new 0 0 65 51;" xml:space="preserve">
<style type="text/css">
	.st0{fill:#365F84;}
</style>
<g id="Group_496">
	<path id="Path_328" class="st0" d="M35.1,28c0.2-0.3,0.3-0.6,0.2-0.9l-1.6-4.8c-0.3-0.8-0.8-1-1.1-1H19.1c-0.4,0-0.9,0.2-1.2,1
		l-1.6,4.8c-0.1,0.3,0,0.7,0.2,0.9c0.2,0.3,0.6,0.5,1,0.5h16.6C34.5,28.5,34.9,28.3,35.1,28L35.1,28z M17.8,27.2l1.5-4.4
		c0,0,0,0,0-0.1h13c0,0,0,0,0,0.1l1.5,4.4H17.8L17.8,27.2z"/>
	<path id="Path_329" class="st0" d="M18.1,31.5h-4c-0.8,0-1.5,0.7-1.5,1.5v1.4c0,0.8,0.7,1.5,1.5,1.5h4c0.8,0,1.5-0.7,1.5-1.5V33
		C19.6,32.2,18.9,31.5,18.1,31.5z M18.2,34.4C18.2,34.5,18.1,34.5,18.2,34.4l-4,0.1c0,0-0.1,0-0.1-0.1V33c0,0,0-0.1,0.1-0.1h4
		c0,0,0.1,0,0.1,0.1V34.4z"/>
	<path id="Path_330" class="st0" d="M37.6,31.5h-4c-0.8,0-1.5,0.7-1.5,1.5v1.4c0,0.8,0.7,1.5,1.5,1.5h4c0.8,0,1.5-0.7,1.5-1.5V33
		C39,32.2,38.4,31.5,37.6,31.5z M37.6,34.4C37.6,34.5,37.6,34.5,37.6,34.4l-4,0.1c0,0-0.1,0-0.1-0.1V33c0,0,0-0.1,0.1-0.1h4
		c0,0,0.1,0,0.1,0.1V34.4z"/>
	<path id="Path_331" class="st0" d="M51.8,37.7h-3.2V22.5c5-1.2,8.1-6.2,6.9-11.2s-6.2-8.1-11.2-6.9c-5,1.2-8.1,6.2-6.9,11.2
		c0.8,3.4,3.5,6.1,6.9,6.9v6.4c0,0.4,0.3,0.7,0.7,0.7s0.7-0.3,0.7-0.7c0,0,0,0,0,0v-6.2c0.2,0,0.5,0,0.7,0s0.5,0,0.7,0v15h-1.5V32
		c0-0.4-0.3-0.7-0.7-0.7c-0.4,0-0.7,0.3-0.7,0.7v5.6h-2.1l0-3.9c0-0.2,0-0.3,0-0.5c0.2-1.3-0.2-2.6-1-3.6c0,0,0,0,0-0.1l-1.8-1.8
		l1.9-0.5c0.6-0.1,1-0.6,1-1.2v-1.9c0-0.7-0.5-1.2-1.2-1.2h-3.8l-1-3c-0.5-1.2-1.8-2-3.1-2h-15c-1.3,0-2.6,0.7-3.1,2l-1,3h-3.8
		c-0.7,0-1.2,0.5-1.2,1.2v1.9c0,0.6,0.4,1.1,1,1.2l1.9,0.5l-1.8,1.8c0,0,0,0,0,0.1c-0.8,1-1.1,2.3-1,3.6c0,0.2,0,0.3,0,0.5l0,4.5V45
		c0,1,0.8,1.9,1.9,1.9h3.1c1,0,1.9-0.8,1.9-1.9v0v-2.3h8c0.4,0,0.7-0.3,0.7-0.7c0-0.4-0.3-0.7-0.7-0.7c0,0,0,0,0,0H10.7v-2.2H41v2.2
		H27.3c-0.4,0-0.7,0.3-0.7,0.7c0,0.4,0.3,0.7,0.7,0.7c0,0,0,0,0,0h8.2V45c0,1,0.8,1.9,1.9,1.9h3.1c1,0,1.9-0.8,1.9-1.9v-2.8h9.5
		c0.8,0,1.5-0.7,1.5-1.5v0v-1.5C53.3,38.4,52.7,37.7,51.8,37.7z M38.6,13.5c0-4.4,3.5-7.9,7.9-7.9s7.9,3.5,7.9,7.9
		c0,4.4-3.5,7.9-7.9,7.9C42.2,21.4,38.6,17.8,38.6,13.5z M41.1,24.5V26l0,0l-2.4,0.7l-0.8-2.2L41.1,24.5z M10.6,26v-1.6h3.2L13,26.7
		L10.6,26L10.6,26z M14.8,42.7V45c0,0.3-0.2,0.5-0.5,0.5h-3.1c-0.3,0-0.5-0.2-0.5-0.5v-2.3H14.8z M23.5,37.7v-2.4
		c0-1.3,1.1-2.4,2.4-2.4c1.3,0,2.4,1.1,2.4,2.4v2.4L23.5,37.7z M29.6,37.7v-2.4c0-2.1-1.7-3.7-3.7-3.7s-3.7,1.7-3.7,3.7v2.4H10.7
		v-3.9c0-0.2,0-0.3,0-0.5c-0.1-0.9,0.1-1.9,0.6-2.7l2.6-2.6l0,0l0,0c0,0,0,0,0.1-0.1l0,0c0,0,0-0.1,0-0.1v0c0,0,0,0,0-0.1l2.5-7.2
		c0.4-0.7,1.1-1.1,1.8-1h15c0.7,0,1.4,0.4,1.8,1l2.5,7.2c0,0,0,0,0,0.1v0c0,0,0,0.1,0,0.1l0,0c0,0,0,0,0.1,0.1l0,0l0,0l2.6,2.6
		c0.6,0.8,0.8,1.8,0.6,2.7c0,0.2,0,0.3,0,0.5l0,3.9L29.6,37.7z M41,45c0,0.3-0.2,0.5-0.5,0.5h-3.1c-0.3,0-0.5-0.2-0.5-0.5v-2.3H41
		L41,45z M52,40.7c0,0.1-0.1,0.2-0.2,0.2h-9.5v-1.8h9.5c0.1,0,0.2,0.1,0.2,0.2V40.7z"/>
	<path id="Path_332" class="st0" d="M49.3,9.6L49.3,9.6C48.8,9,48,8.7,47.2,8.7h-2.4c-0.4,0-0.8,0.3-0.8,0.8v8
		c0,0.4,0.3,0.8,0.7,0.8h0c0.4,0,0.7-0.3,0.8-0.7c0,0,0,0,0,0v-2.8h1.6c1.7,0,3-1.4,3-3.1C50.2,10.9,49.9,10.1,49.3,9.6L49.3,9.6z
		 M48.7,11.7c0,0.8-0.7,1.5-1.5,1.5h-1.6v-3h1.6C48.1,10.2,48.7,10.9,48.7,11.7L48.7,11.7z"/>
</g>
</svg>
