<?xml version="1.0" encoding="utf-8"?>
<!-- Generator: Adobe Illustrator 25.0.0, SVG Export Plug-In . SVG Version: 6.00 Build 0)  -->
<svg version="1.1" id="Layer_1" xmlns="http://www.w3.org/2000/svg" xmlns:xlink="http://www.w3.org/1999/xlink" x="0px" y="0px"
	 viewBox="0 0 65 51" style="enable-background:new 0 0 65 51;" xml:space="preserve">
<style type="text/css">
	.st0{fill:#365F84;}
</style>
<g id="Group_4189" transform="translate(-0.326 0.385)">
	<g>
		<g id="Group_4176" transform="translate(0)">
			<g id="Path_7995">
				<path class="st0" d="M15.9,25.6c0-9.1,7.7-16.4,17.2-16.4c5.1,0,9.9,2.2,13.2,6h-3.1c-0.4,0-0.8,0.3-0.8,0.7
					c0,0.4,0.3,0.8,0.7,0.8c0,0,0.1,0,0.1,0h4.7c0.4,0,0.8-0.3,0.8-0.7v-4.5c0-0.4-0.4-0.8-0.8-0.7c-0.4,0-0.7,0.3-0.7,0.7v2.4
					C43.5,9.9,38.4,7.6,33,7.7c-10.3,0-18.7,8-18.7,17.9c0,1.3,0.1,2.6,0.4,3.9c0.1,0.3,0.4,0.6,0.8,0.6c0.1,0,0.1,0,0.2,0
					c0.4-0.1,0.7-0.5,0.6-0.9c0,0,0,0,0,0C16,28,15.9,26.8,15.9,25.6"/>
				<path class="st0" d="M15.5,30.3c-0.4,0-0.8-0.3-0.9-0.7c-0.3-1.3-0.5-2.6-0.4-4c0-10,8.5-18.1,18.9-18.1c0,0,0,0,0,0
					c5.2,0,10.2,2.1,13.8,5.8v-1.9c0-0.5,0.4-0.9,0.9-0.9c0.5,0,1,0.4,1,0.9v4.5c0,0.5-0.4,0.9-1,0.9c0,0,0,0,0,0h-4.7
					c0,0-0.1,0-0.1,0c-0.3,0-0.5-0.1-0.7-0.3s-0.3-0.4-0.2-0.7c0-0.5,0.5-0.9,1-0.9l2.6,0c-3.3-3.6-7.9-5.6-12.7-5.6c0,0,0,0-0.1,0
					c-9.4,0-17,7.3-17,16.2h-0.2l0.2,0c0,1.2,0.1,2.4,0.4,3.5c0.1,0.5-0.2,1-0.7,1.1C15.6,30.3,15.6,30.3,15.5,30.3z M33.1,7.9
					C33.1,7.9,33.1,7.9,33.1,7.9c-10.3,0-18.6,8-18.6,17.7c0,1.3,0.1,2.6,0.4,3.9c0.1,0.3,0.3,0.4,0.6,0.4c0.1,0,0.1,0,0.1,0
					c0.3-0.1,0.5-0.3,0.4-0.6c-0.3-1.2-0.4-2.4-0.4-3.6h0C15.7,16.4,23.5,9,33,9c0,0,0,0,0.1,0c5.1,0,10,2.2,13.3,6l0.3,0.3h-3.5
					c-0.2,0-0.3,0-0.4,0.1c-0.1,0.1-0.2,0.2-0.2,0.4c0,0.1,0,0.3,0.1,0.4c0.1,0.1,0.2,0.2,0.4,0.2c0,0,0,0,0.1,0l4.7,0c0,0,0,0,0,0
					c0.3,0,0.6-0.2,0.6-0.6v-4.5c0-0.3-0.3-0.5-0.6-0.5c0,0,0,0,0,0c-0.3,0-0.5,0.3-0.6,0.6v2.9L47,13.9
					C43.4,10.1,38.3,7.9,33.1,7.9z"/>
			</g>
			<g id="Path_7996">
				<path class="st0" d="M51.3,21.7c-0.1-0.4-0.5-0.7-0.9-0.6c-0.4,0.1-0.7,0.5-0.6,0.9c0,0,0,0,0,0c0.3,1.2,0.4,2.4,0.4,3.6
					C50.2,34.7,42.5,42,33,42c-5.1,0-9.9-2.2-13.2-6h3.1c0.4,0,0.8-0.3,0.8-0.7c0-0.4-0.3-0.8-0.7-0.8c0,0-0.1,0-0.1,0h-4.7
					c-0.2,0-0.4,0.1-0.6,0.2c-0.1,0.1-0.2,0.3-0.2,0.5l0.1,4.5c0,0.4,0.4,0.7,0.8,0.7h0c0.4,0,0.8-0.3,0.8-0.8c0,0,0,0,0,0l0-2.3
					c3.6,3.9,8.7,6.1,14,6.1c10.3,0,18.7-8,18.7-17.9C51.8,24.3,51.6,23,51.3,21.7"/>
				<path class="st0" d="M33,43.7c-5.2,0-10.1-2.1-13.8-5.8l0,1.8c0,0.3-0.1,0.5-0.3,0.7c-0.2,0.2-0.4,0.3-0.7,0.3c0,0,0,0,0,0
					c-0.5,0-1-0.4-1-0.9l-0.1-4.5c0-0.3,0.1-0.5,0.3-0.7c0.2-0.2,0.4-0.3,0.7-0.3c0,0,0,0,0,0h4.7c0,0,0.1,0,0.1,0
					c0.2,0,0.5,0.1,0.7,0.3c0.2,0.2,0.3,0.4,0.2,0.7c0,0.5-0.4,0.9-0.9,0.9c0,0,0,0,0,0h-2.6c3.3,3.6,7.9,5.6,12.7,5.6
					c0,0,0,0,0.1,0c9.4,0,17-7.3,17-16.2c0-1.2-0.1-2.4-0.4-3.5c-0.1-0.3,0-0.5,0.1-0.7c0.1-0.2,0.4-0.4,0.6-0.4
					c0.5-0.1,1,0.2,1.2,0.7l-0.2,0.1l0.2-0.1c0.3,1.3,0.5,2.6,0.5,4C52,35.6,43.5,43.7,33,43.7C33,43.7,33,43.7,33,43.7z M18.8,36.9
					l0.4,0.4c3.6,3.8,8.6,6,13.8,6c0,0,0,0,0,0c10.2,0,18.5-8,18.5-17.7c0-1.3-0.1-2.6-0.5-3.9h0c-0.1-0.3-0.4-0.5-0.7-0.4
					C50.1,21.4,50,21.7,50,22c0.3,1.2,0.4,2.4,0.4,3.6c0,9.2-7.8,16.6-17.4,16.6c0,0,0,0-0.1,0c-5.1,0-10-2.2-13.3-6l-0.3-0.3h3.5
					c0,0,0,0,0,0c0.3,0,0.5-0.2,0.6-0.5c0-0.1,0-0.3-0.1-0.4s-0.2-0.2-0.4-0.2h-4.8c0,0,0,0,0,0c-0.2,0-0.3,0.1-0.4,0.2
					c-0.1,0.1-0.2,0.2-0.2,0.4l0.1,4.5c0,0.3,0.3,0.6,0.6,0.5c0.2,0,0.3-0.1,0.4-0.2c0.1-0.1,0.2-0.2,0.2-0.4L18.8,36.9z"/>
			</g>
			<g id="Path_7997">
				<path class="st0" d="M34.9,16.6h-7.4v17.9h2.2v-7.3h5.2c1.6,0.1,3.3-0.4,4.6-1.4c1.1-1,1.7-2.4,1.6-3.9c0.1-1.5-0.5-2.9-1.6-3.9
					C38.2,17,36.6,16.5,34.9,16.6 M34.7,25.5h-5v-7.1h5c2.9,0,4.3,1.2,4.3,3.5C39,24.3,37.6,25.5,34.7,25.5"/>
				<path class="st0" d="M29.9,34.7h-2.6V16.4h7.6l0,0c1.7-0.1,3.4,0.4,4.7,1.4c1.2,1,1.8,2.5,1.7,4.1c0.1,1.5-0.5,3-1.7,4.1
					c-1.4,1-3,1.6-4.7,1.4l-5,0V34.7z M27.7,34.3h1.8V27h5.4c1.6,0.1,3.2-0.4,4.4-1.4c1.1-0.9,1.6-2.3,1.6-3.7
					c0.1-1.4-0.5-2.8-1.6-3.7c-1.3-0.9-2.8-1.4-4.4-1.3l0-0.2v0.2h-7.2V34.3z M34.7,25.7L34.7,25.7l-5.2,0v-7.5h5.2
					c3,0,4.5,1.3,4.5,3.7C39.2,24.4,37.7,25.7,34.7,25.7z M29.9,25.3l4.8,0c2.7,0,4.1-1.1,4.1-3.4c0-2.2-1.3-3.3-4.1-3.3h-4.8V25.3z
					"/>
			</g>
		</g>
	</g>
</g>
</svg>
