<?xml version="1.0" encoding="utf-8"?>
<!-- Generator: Adobe Illustrator 25.0.0, SVG Export Plug-In . SVG Version: 6.00 Build 0)  -->
<svg version="1.1" id="Layer_1" xmlns="http://www.w3.org/2000/svg" xmlns:xlink="http://www.w3.org/1999/xlink" x="0px" y="0px"
	 viewBox="0 0 27 33" style="enable-background:new 0 0 27 33;" xml:space="preserve">
<style type="text/css">
	.st0{fill:#FFFFFF;}
</style>
<g id="Group_195">
	<path id="Path_34" class="st0" d="M19.5,20.4c2.6-2.5,2.7-6.6,0.2-9.2s-6.6-2.7-9.2-0.2c-0.1,0.1-0.1,0.1-0.2,0.2
		c-2.1,2.1-2.5,5.3-1,7.8c0.1,0.1,0,0.2,0,0.3L6,22.7c-0.7,0.5-0.8,1.5-0.3,2.1c0,0,0,0,0,0L5.9,25c0.6,0.5,1.6,0.5,2.1-0.2
		c0,0,0,0,0,0l3.3-3.3c0.1-0.1,0.2-0.1,0.3,0C14.2,22.9,17.5,22.5,19.5,20.4z M11.6,19.2c-1.9-1.9-1.9-4.9,0-6.8s4.9-1.9,6.8,0
		s1.9,4.9,0,6.8c0,0,0,0,0,0C16.5,21.1,13.4,21.1,11.6,19.2L11.6,19.2z"/>
	<g id="Group_194" transform="translate(5.947 2.616)">
		<path id="Path_35" class="st0" d="M6.1,12.8c-0.4,0-0.7-0.3-0.7-0.7c0-0.1,0-0.2,0.1-0.3c0.9-2.1,3.3-3.1,5.4-2.2
			c0.3,0.1,0.5,0.5,0.4,0.8s-0.5,0.5-0.8,0.4c0,0-0.1,0-0.1,0C9,10.3,7.3,11,6.7,12.4C6.6,12.6,6.4,12.8,6.1,12.8z"/>
	</g>
</g>
</svg>
