<?xml version="1.0" encoding="utf-8"?>
<!-- Generator: Adobe Illustrator 25.0.0, SVG Export Plug-In . SVG Version: 6.00 Build 0)  -->
<svg version="1.1" id="Layer_1" xmlns="http://www.w3.org/2000/svg" xmlns:xlink="http://www.w3.org/1999/xlink" x="0px" y="0px"
	 viewBox="0 0 27 33" style="enable-background:new 0 0 27 33;" xml:space="preserve">
<style type="text/css">
	.st0{fill:none;}
	.st1{fill:#365F84;}
</style>
<path id="Path_7388" class="st0" d="M0.2,3.6h27v27h-27V3.6z"/>
<path id="Path_7389" class="st1" d="M17.7,19.3h-0.9L16.5,19c2.6-3.1,2.3-7.7-0.8-10.3S8,6.4,5.3,9.5s-2.3,7.7,0.8,10.3
	c2.7,2.4,6.8,2.4,9.5,0l0.3,0.3V21l5.6,5.6l1.7-1.7L17.7,19.3z M10.9,19.3c-2.8,0-5.1-2.3-5.1-5.1s2.3-5.1,5.1-5.1s5.1,2.3,5.1,5.1
	c0,0,0,0,0,0C16,17,13.7,19.3,10.9,19.3C10.9,19.3,10.9,19.3,10.9,19.3z"/>
</svg>
