<?xml version="1.0" encoding="utf-8"?>
<!-- Generator: Adobe Illustrator 25.0.0, SVG Export Plug-In . SVG Version: 6.00 Build 0)  -->
<svg version="1.1" id="Layer_1" xmlns="http://www.w3.org/2000/svg" xmlns:xlink="http://www.w3.org/1999/xlink" x="0px" y="0px"
	 viewBox="0 0 27 33" style="enable-background:new 0 0 27 33;" xml:space="preserve">
<style type="text/css">
	.st0{fill:#365F84;}
</style>
<g id="Group_3380">
	<g id="Group_3379">
		<path id="Path_7390" class="st0" d="M21.9,9.6C18.8,5.1,12.6,4,8,7.1c-1,0.7-1.8,1.5-2.5,2.5c-1.9,2.7-2.3,6.1-1.2,9.2
			c0.3,0.9,0.8,1.7,1.4,2.4l7.3,8.5c0.3,0.4,0.9,0.4,1.2,0.1c0,0,0.1-0.1,0.1-0.1l7.3-8.5c0.6-0.7,1.1-1.5,1.5-2.4
			C24.2,15.8,23.8,12.3,21.9,9.6z M21.5,18.2c-0.3,0.7-0.7,1.3-1.1,1.9l0,0l-6.6,7.8l-6.6-7.8c-0.5-0.6-0.9-1.2-1.1-1.9
			c-0.9-2.5-0.6-5.4,1-7.6c2.6-3.7,7.7-4.7,11.5-2.1c0.8,0.6,1.5,1.3,2.1,2.1C22.1,12.8,22.4,15.7,21.5,18.2z"/>
	</g>
</g>
<g id="Group_3382" transform="translate(5.307 5.229)">
	<g id="Group_3381">
		<path id="Path_7391" class="st0" d="M8.4,5.3c-2.6,0-4.7,2.1-4.7,4.7s2.1,4.7,4.7,4.7c2.6,0,4.7-2.1,4.7-4.7v0
			C13.1,7.4,11,5.3,8.4,5.3z M8.4,13c-1.7,0-3-1.4-3-3s1.4-3,3-3c1.7,0,3,1.4,3,3l0,0C11.4,11.7,10.1,13,8.4,13z"/>
	</g>
</g>
</svg>
