<?xml version="1.0" encoding="utf-8"?>
<!-- Generator: Adobe Illustrator 25.0.0, SVG Export Plug-In . SVG Version: 6.00 Build 0)  -->
<svg version="1.1" id="Layer_1" xmlns="http://www.w3.org/2000/svg" xmlns:xlink="http://www.w3.org/1999/xlink" x="0px" y="0px"
	 viewBox="0 0 27 33" style="enable-background:new 0 0 27 33;" xml:space="preserve">
<style type="text/css">
	.st0{fill:#365F84;stroke:#365F84;stroke-width:0.3;}
</style>
<g id="obelisk" transform="translate(0.15 0.15)">
	<g id="Group_937">
		<path id="Path_7268" class="st0" d="M20.2,26.6h-2v-1c0-0.6-0.5-1-1-1h0L16.5,7c0-0.1-0.1-0.2-0.1-0.3l-2.4-2.5
			c-0.2-0.2-0.5-0.2-0.7,0c0,0,0,0,0,0l-2.4,2.5c-0.1,0.1-0.1,0.2-0.1,0.3L10,24.6h0c-0.6,0-1,0.5-1,1v1H7c-0.6,0-1,0.5-1,1v1.8
			c0,0.3,0.2,0.5,0.5,0.5l0,0h14.2c0.3,0,0.5-0.2,0.5-0.5c0,0,0,0,0,0v-1.8C21.2,27.1,20.7,26.6,20.2,26.6z M11.7,7.2l1.9-2l1.9,2
			l0.6,17.4h-5L11.7,7.2z M20.2,28.9H7v-1.3h4.3c0.3,0,0.5-0.2,0.5-0.5s-0.2-0.5-0.5-0.5H10v-1h7.1v1h-1.3c-0.3,0-0.5,0.2-0.5,0.5
			s0.2,0.5,0.5,0.5l0,0h4.3L20.2,28.9z"/>
		<path id="Path_7269" class="st0" d="M14.3,21.1h-1.4c-0.3,0-0.5,0.2-0.5,0.5s0.2,0.5,0.5,0.5l0,0h1.4c0.3,0,0.5-0.2,0.5-0.5
			S14.6,21.1,14.3,21.1z"/>
		<path id="Path_7270" class="st0" d="M13,19.6h1.2c0.3,0,0.5-0.2,0.5-0.5s-0.2-0.5-0.5-0.5H13c-0.3,0-0.5,0.2-0.5,0.5
			S12.7,19.6,13,19.6L13,19.6z"/>
		<path id="Path_7271" class="st0" d="M13.1,17h1c0.3,0,0.5-0.2,0.5-0.5c0-0.3-0.2-0.5-0.5-0.5h-1c-0.3,0-0.5,0.2-0.5,0.5
			C12.6,16.8,12.8,17,13.1,17L13.1,17z"/>
		<path id="Path_7272" class="st0" d="M13.2,14.5H14c0.3,0,0.5-0.2,0.5-0.5c0-0.3-0.2-0.5-0.5-0.5h-0.8c-0.3,0-0.5,0.2-0.5,0.5
			C12.6,14.3,12.9,14.5,13.2,14.5z"/>
		<path id="Path_7273" class="st0" d="M13.3,12h0.6c0.3,0,0.5-0.2,0.5-0.5c0-0.3-0.2-0.5-0.5-0.5l0,0h-0.6c-0.3,0-0.5,0.2-0.5,0.5
			C12.8,11.7,13,12,13.3,12L13.3,12z"/>
		<path id="Path_7274" class="st0" d="M13.4,9.4h0.3c0.3,0,0.5-0.2,0.5-0.5S14,8.4,13.7,8.4l0,0h-0.3c-0.3,0-0.5,0.2-0.5,0.5
			S13.1,9.4,13.4,9.4L13.4,9.4z"/>
		<path id="Path_7275" class="st0" d="M13.6,26.6L13.6,26.6c-0.3,0-0.5,0.2-0.5,0.5s0.2,0.5,0.5,0.5c0.3,0,0.5-0.2,0.5-0.5
			C14.1,26.8,13.9,26.6,13.6,26.6C13.6,26.6,13.6,26.6,13.6,26.6L13.6,26.6z"/>
	</g>
</g>
</svg>
