<?xml version="1.0" encoding="utf-8"?>
<!-- Generator: Adobe Illustrator 25.0.0, SVG Export Plug-In . SVG Version: 6.00 Build 0)  -->
<svg version="1.1" id="Layer_1" xmlns="http://www.w3.org/2000/svg" xmlns:xlink="http://www.w3.org/1999/xlink" x="0px" y="0px"
	 viewBox="0 0 34 34" style="enable-background:new 0 0 34 34;" xml:space="preserve">
<style type="text/css">
	.st0{fill:#FFFFFF;}
</style>
<path id="Path_7716" class="st0" d="M25.7,8.3C23.4,6,20.3,4.7,17,4.7c-3.3,0-6.4,1.3-8.7,3.6C6,10.6,4.7,13.7,4.7,17
	c0,3.3,1.3,6.4,3.6,8.7c2.3,2.3,5.4,3.6,8.7,3.6c4.9,0,9.3-2.9,11.2-7.3c0.7-1.6,1-3.2,1-4.9C29.3,13.8,28,10.6,25.7,8.3z M17,19.4
	c-2.2,0-4-1.8-4-4c0-2.2,1.8-4,4-4c2.2,0,4,1.8,4,4C21,17.6,19.2,19.4,17,19.4z M12.8,22.4c1.2-0.9,2.7-1.3,4.2-1.3
	c1.5,0,3,0.5,4.2,1.3c1,0.7,1.9,1.7,2.5,2.8c-1.9,1.5-4.2,2.4-6.7,2.4c-2.4,0-4.8-0.8-6.7-2.4C10.9,24.1,11.7,23.1,12.8,22.4z
	 M22.2,21c-0.6-0.4-1.2-0.7-1.9-1c1.5-1.1,2.4-2.8,2.4-4.6c0-3.1-2.5-5.7-5.7-5.7c-3.1,0-5.7,2.5-5.7,5.7c0,1.8,0.9,3.6,2.4,4.6
	c-0.7,0.3-1.3,0.6-1.9,1c-1.1,0.8-2.1,1.8-2.8,3c-1.7-1.9-2.7-4.4-2.7-7c0-5.9,4.8-10.6,10.6-10.6c5.9,0,10.6,4.8,10.6,10.6
	c0,1.5-0.3,2.9-0.9,4.3c-0.4,1-1,1.9-1.8,2.8C24.3,22.9,23.3,21.8,22.2,21L22.2,21z"/>
</svg>
