<?xml version="1.0" encoding="utf-8"?>
<!-- Generator: Adobe Illustrator 25.0.0, SVG Export Plug-In . SVG Version: 6.00 Build 0)  -->
<svg version="1.1" id="Layer_1" xmlns="http://www.w3.org/2000/svg" xmlns:xlink="http://www.w3.org/1999/xlink" x="0px" y="0px"
	 viewBox="0 0 34 34" style="enable-background:new 0 0 34 34;" xml:space="preserve">
<style type="text/css">
	.st0{fill:#FFFFFF;}
</style>
<g>
	<path id="Path_7715" class="st0" d="M26.1,23.7H25v-1.1c0-0.4-0.3-0.7-0.7-0.7c-0.4,0-0.7,0.3-0.7,0.7v1.1h-1.1
		c-0.4,0-0.7,0.3-0.7,0.7s0.3,0.7,0.7,0.7h1.1v1.1c0,0.4,0.3,0.7,0.7,0.7c0.4,0,0.7-0.3,0.7-0.7v-1.1h1.1c0.4,0,0.7-0.3,0.7-0.7
		S26.5,23.7,26.1,23.7z"/>
	<path id="Path_7714" class="st0" d="M29.3,17c0-6.8-5.5-12.3-12.3-12.3c-3.3,0-6.4,1.3-8.7,3.6c-4.8,4.8-4.8,12.6,0,17.4
		c3.5,3.5,8.6,4.5,13.2,2.7c2.3,1.5,5.4,0.9,6.9-1.4c1.1-1.7,1.1-3.9,0-5.5C29,20.1,29.3,18.5,29.3,17z M24.3,27.6
		c-1.8,0-3.3-1.5-3.3-3.3c0-1.8,1.5-3.3,3.3-3.3c1.8,0,3.3,1.5,3.3,3.3c0,0,0,0,0,0C27.6,26.1,26.1,27.6,24.3,27.6z M17,11.4
		c2.2,0,4,1.8,4,4c0,2.2-1.8,4-4,4s-4-1.8-4-4c0,0,0,0,0,0C13,13.2,14.8,11.4,17,11.4z M12.8,22.4c1.2-0.9,2.7-1.3,4.2-1.3
		c1,0,2.1,0.2,3,0.6c-1,1.7-0.9,3.8,0.2,5.4c-3.4,1.1-7.1,0.4-9.9-1.9C10.9,24.1,11.7,23.1,12.8,22.4L12.8,22.4z M24.3,19.3
		c-1.1,0-2.3,0.4-3.2,1.1c-0.3-0.1-0.6-0.3-0.8-0.4c2.6-1.8,3.1-5.4,1.3-7.9s-5.4-3.1-7.9-1.3c-1.5,1.1-2.4,2.8-2.4,4.6
		c0,1.8,0.9,3.6,2.4,4.6c-0.7,0.3-1.3,0.6-1.9,1c-1.1,0.8-2.1,1.8-2.8,3C5.2,19.7,5.6,13,10,9.1S21.1,5.6,25,10
		c2.5,2.8,3.3,6.6,2.2,10.2C26.3,19.6,25.3,19.3,24.3,19.3z"/>
</g>
</svg>
